<svg xmlns="http://www.w3.org/2000/svg" viewBox="0 0 1536 730" width="1536" height="730">
  <defs>
    <linearGradient id="bgBase" x1="0" y1="0" x2="0" y2="1">
      <stop offset="0" stop-color="#0b2a63"></stop>
      <stop offset="0.55" stop-color="#0a2150"></stop>
      <stop offset="1" stop-color="#050f2e"></stop>
    </linearGradient>
    <radialGradient id="glowTop" cx="0.42" cy="-0.05" r="0.75">
      <stop offset="0" stop-color="#4fe8ff" stop-opacity="0.85"></stop>
      <stop offset="0.4" stop-color="#1e8fd6" stop-opacity="0.35"></stop>
      <stop offset="1" stop-color="#0a2150" stop-opacity="0"></stop>
    </radialGradient>
    <radialGradient id="glowBL" cx="0.12" cy="1.05" r="0.8">
      <stop offset="0" stop-color="#3ff0e0" stop-opacity="0.9"></stop>
      <stop offset="0.35" stop-color="#1fb6c8" stop-opacity="0.4"></stop>
      <stop offset="1" stop-color="#0a2150" stop-opacity="0"></stop>
    </radialGradient>
    <radialGradient id="nodeActive" cx="0.5" cy="0.5" r="0.5">
      <stop offset="0" stop-color="#ffffff"></stop>
      <stop offset="0.45" stop-color="#4ff0ff"></stop>
      <stop offset="1" stop-color="#17b6e0"></stop>
    </radialGradient>
    <filter id="starGlow" x="-300%" y="-300%" width="700%" height="700%">
      <feGaussianBlur stdDeviation="2.2"></feGaussianBlur>
    </filter>
    <filter id="edgeGlow" x="-20%" y="-20%" width="140%" height="140%">
      <feGaussianBlur stdDeviation="2.6"></feGaussianBlur>
    </filter>
    <filter id="activeGlow" x="-200%" y="-200%" width="500%" height="500%">
      <feGaussianBlur stdDeviation="14"></feGaussianBlur>
    </filter>
    <clipPath id="bodyclip"><ellipse cx="400" cy="490" rx="178" ry="168"></ellipse></clipPath>
  
  <filter id="titleGlow" x="-60%" y="-60%" width="220%" height="220%">
    <feDropShadow dx="0" dy="0" stdDeviation="16" flood-color="#4ff0ff" flood-opacity="0.9"></feDropShadow>
  </filter>
  </defs>

  <rect width="1536" height="730" fill="url(#bgBase)"></rect>

  <g>
    <circle cx="0.0" cy="775.4" r="0.40" fill="#dff1ff" opacity="0.20"></circle>
    <circle cx="995.5" cy="423.3" r="1.32" fill="#dff1ff" opacity="0.37"></circle>
    <circle cx="904.7" cy="653.0" r="1.10" fill="#dff1ff" opacity="0.43"></circle>
    <circle cx="1310.5" cy="560.6" r="1.49" fill="#dff1ff" opacity="0.71"></circle>
    <circle cx="205.1" cy="490.7" r="1.65" fill="#dff1ff" opacity="0.90"></circle>
    <circle cx="1338.0" cy="408.3" r="0.65" fill="#dff1ff" opacity="0.42"></circle>
    <circle cx="388.8" cy="453.8" r="1.65" fill="#dff1ff" opacity="0.23"></circle>
    <circle cx="966.0" cy="819.2" r="0.61" fill="#dff1ff" opacity="0.74"></circle>
    <circle cx="949.5" cy="670.2" r="1.85" fill="#dff1ff" opacity="0.33"></circle>
    <circle cx="623.2" cy="27.8" r="0.62" fill="#dff1ff" opacity="0.67"></circle>
    <circle cx="38.5" cy="846.7" r="0.60" fill="#dff1ff" opacity="0.78"></circle>
    <circle cx="15.0" cy="644.9" r="0.43" fill="#dff1ff" opacity="0.93"></circle>
    <circle cx="1426.9" cy="621.0" r="0.61" fill="#dff1ff" opacity="0.78"></circle>
    <circle cx="973.9" cy="287.1" r="1.45" fill="#dff1ff" opacity="0.73"></circle>
    <circle cx="23.9" cy="0.9" r="1.29" fill="#dff1ff" opacity="0.64"></circle>
    <circle cx="896.3" cy="937.6" r="0.66" fill="#dff1ff" opacity="0.29"></circle>
    <circle cx="1122.2" cy="311.4" r="2.75" fill="#dff1ff" opacity="0.39" filter="url(#starGlow)"></circle>
    <circle cx="962.5" cy="927.9" r="0.99" fill="#dff1ff" opacity="0.71"></circle>
    <circle cx="602.6" cy="475.5" r="0.43" fill="#dff1ff" opacity="0.77"></circle>
    <circle cx="428.4" cy="302.3" r="2.09" fill="#dff1ff" opacity="0.56" filter="url(#starGlow)"></circle>
    <circle cx="1270.1" cy="570.4" r="1.23" fill="#dff1ff" opacity="0.42"></circle>
    <circle cx="511.9" cy="816.3" r="1.75" fill="#ffe6a8" opacity="0.57" filter="url(#starGlow)"></circle>
    <circle cx="436.2" cy="481.7" r="1.06" fill="#dff1ff" opacity="0.63"></circle>
    <circle cx="4.6" cy="295.1" r="1.82" fill="#dff1ff" opacity="0.92"></circle>
    <circle cx="1432.4" cy="845.9" r="1.05" fill="#dff1ff" opacity="0.46"></circle>
    <circle cx="207.3" cy="115.1" r="1.83" fill="#dff1ff" opacity="0.54"></circle>
    <circle cx="1340.4" cy="830.6" r="1.73" fill="#dff1ff" opacity="0.82"></circle>
    <circle cx="444.9" cy="594.4" r="0.49" fill="#dff1ff" opacity="0.76"></circle>
    <circle cx="1145.0" cy="206.1" r="0.66" fill="#dff1ff" opacity="0.33"></circle>
    <circle cx="1174.4" cy="54.9" r="1.73" fill="#dff1ff" opacity="0.64"></circle>
    <circle cx="448.1" cy="347.4" r="3.18" fill="#dff1ff" opacity="0.92" filter="url(#starGlow)"></circle>
    <circle cx="197.6" cy="537.9" r="0.65" fill="#dff1ff" opacity="0.71"></circle>
    <circle cx="1117.3" cy="154.0" r="0.86" fill="#dff1ff" opacity="0.49"></circle>
    <circle cx="529.3" cy="320.2" r="1.53" fill="#dff1ff" opacity="0.63"></circle>
    <circle cx="59.3" cy="961.7" r="0.95" fill="#dff1ff" opacity="0.35"></circle>
    <circle cx="224.6" cy="938.0" r="2.03" fill="#dff1ff" opacity="0.48"></circle>
    <circle cx="973.6" cy="763.1" r="1.09" fill="#dff1ff" opacity="0.40"></circle>
    <circle cx="1446.8" cy="28.8" r="1.92" fill="#dff1ff" opacity="0.43"></circle>
    <circle cx="1374.6" cy="626.2" r="1.07" fill="#dff1ff" opacity="0.87"></circle>
    <circle cx="287.1" cy="357.8" r="0.47" fill="#dff1ff" opacity="0.42"></circle>
    <circle cx="1110.8" cy="155.9" r="3.02" fill="#dff1ff" opacity="0.45" filter="url(#starGlow)"></circle>
    <circle cx="1035.0" cy="506.5" r="1.38" fill="#dff1ff" opacity="0.25"></circle>
    <circle cx="617.9" cy="815.0" r="1.15" fill="#dff1ff" opacity="0.66"></circle>
    <circle cx="191.2" cy="797.3" r="0.53" fill="#dff1ff" opacity="0.74"></circle>
    <circle cx="375.9" cy="595.4" r="0.71" fill="#dff1ff" opacity="0.49"></circle>
    <circle cx="179.4" cy="8.9" r="0.95" fill="#dff1ff" opacity="0.89"></circle>
    <circle cx="214.1" cy="68.6" r="1.85" fill="#dff1ff" opacity="0.58"></circle>
    <circle cx="1489.7" cy="82.7" r="1.87" fill="#dff1ff" opacity="0.62" filter="url(#starGlow)"></circle>
    <circle cx="1242.6" cy="372.9" r="0.51" fill="#dff1ff" opacity="0.55"></circle>
    <circle cx="891.7" cy="203.0" r="0.93" fill="#ffe6a8" opacity="0.78"></circle>
    <circle cx="374.5" cy="241.4" r="2.05" fill="#dff1ff" opacity="0.22"></circle>
    <circle cx="225.7" cy="106.4" r="1.42" fill="#dff1ff" opacity="0.23"></circle>
    <circle cx="1202.4" cy="916.7" r="1.64" fill="#dff1ff" opacity="0.76"></circle>
    <circle cx="1500.4" cy="733.3" r="0.72" fill="#dff1ff" opacity="0.76"></circle>
    <circle cx="409.4" cy="814.9" r="0.95" fill="#dff1ff" opacity="0.33"></circle>
    <circle cx="1344.8" cy="543.9" r="1.55" fill="#ffe6a8" opacity="0.70"></circle>
    <circle cx="77.8" cy="229.4" r="1.50" fill="#dff1ff" opacity="0.28"></circle>
    <circle cx="1104.7" cy="648.0" r="1.69" fill="#dff1ff" opacity="0.45"></circle>
    <circle cx="961.2" cy="891.1" r="1.00" fill="#dff1ff" opacity="0.29"></circle>
    <circle cx="1276.1" cy="839.6" r="1.03" fill="#dff1ff" opacity="0.46"></circle>
    <circle cx="411.5" cy="227.0" r="0.76" fill="#dff1ff" opacity="0.65"></circle>
    <circle cx="937.2" cy="834.3" r="0.87" fill="#dff1ff" opacity="0.79"></circle>
    <circle cx="674.8" cy="662.5" r="0.88" fill="#dff1ff" opacity="0.74"></circle>
    <circle cx="1119.0" cy="459.7" r="1.17" fill="#dff1ff" opacity="0.77"></circle>
    <circle cx="1455.6" cy="603.6" r="1.64" fill="#dff1ff" opacity="0.68"></circle>
    <circle cx="265.8" cy="459.4" r="0.80" fill="#dff1ff" opacity="0.68"></circle>
    <circle cx="493.5" cy="278.6" r="1.18" fill="#dff1ff" opacity="0.40"></circle>
    <circle cx="152.0" cy="107.2" r="1.87" fill="#dff1ff" opacity="0.76" filter="url(#starGlow)"></circle>
    <circle cx="543.7" cy="265.4" r="1.34" fill="#dff1ff" opacity="0.74"></circle>
    <circle cx="323.1" cy="691.8" r="1.38" fill="#dff1ff" opacity="0.36"></circle>
    <circle cx="1473.0" cy="695.6" r="0.67" fill="#dff1ff" opacity="0.64"></circle>
    <circle cx="1316.5" cy="752.5" r="1.73" fill="#dff1ff" opacity="0.91"></circle>
    <circle cx="157.1" cy="585.3" r="1.78" fill="#dff1ff" opacity="0.28"></circle>
    <circle cx="386.1" cy="370.8" r="1.95" fill="#dff1ff" opacity="0.80"></circle>
    <circle cx="1110.3" cy="274.1" r="1.12" fill="#dff1ff" opacity="0.27"></circle>
    <circle cx="953.5" cy="93.8" r="0.53" fill="#ffe6a8" opacity="0.37"></circle>
    <circle cx="1038.6" cy="683.9" r="0.42" fill="#dff1ff" opacity="0.43"></circle>
    <circle cx="425.3" cy="69.9" r="1.89" fill="#dff1ff" opacity="0.56"></circle>
    <circle cx="893.1" cy="9.8" r="1.35" fill="#dff1ff" opacity="0.51"></circle>
    <circle cx="1313.3" cy="839.9" r="1.53" fill="#ffe6a8" opacity="0.76"></circle>
    <circle cx="1025.9" cy="431.4" r="0.70" fill="#dff1ff" opacity="0.84"></circle>
    <circle cx="6.7" cy="1003.6" r="1.30" fill="#dff1ff" opacity="0.35"></circle>
    <circle cx="317.1" cy="136.5" r="0.86" fill="#dff1ff" opacity="0.46"></circle>
    <circle cx="614.3" cy="738.3" r="1.64" fill="#dff1ff" opacity="0.67"></circle>
    <circle cx="477.5" cy="617.1" r="1.67" fill="#dff1ff" opacity="0.47"></circle>
    <circle cx="588.7" cy="329.6" r="1.42" fill="#dff1ff" opacity="0.88"></circle>
    <circle cx="1325.5" cy="514.0" r="0.71" fill="#dff1ff" opacity="0.84"></circle>
    <circle cx="42.0" cy="740.4" r="0.51" fill="#dff1ff" opacity="0.49"></circle>
    <circle cx="831.2" cy="544.9" r="2.02" fill="#ffe6a8" opacity="0.77"></circle>
    <circle cx="617.9" cy="913.8" r="1.37" fill="#dff1ff" opacity="0.67"></circle>
    <circle cx="8.9" cy="553.2" r="1.57" fill="#dff1ff" opacity="0.86"></circle>
    <circle cx="909.6" cy="591.9" r="1.54" fill="#dff1ff" opacity="0.89"></circle>
    <circle cx="1422.9" cy="369.0" r="0.70" fill="#dff1ff" opacity="0.69"></circle>
    <circle cx="3.2" cy="763.6" r="1.97" fill="#dff1ff" opacity="0.28"></circle>
    <circle cx="1213.2" cy="710.4" r="1.35" fill="#dff1ff" opacity="0.60"></circle>
    <circle cx="555.7" cy="611.5" r="2.68" fill="#dff1ff" opacity="0.52" filter="url(#starGlow)"></circle>
    <circle cx="6.7" cy="776.1" r="1.73" fill="#dff1ff" opacity="0.22"></circle>
    <circle cx="539.0" cy="485.0" r="0.46" fill="#dff1ff" opacity="0.68"></circle>
    <circle cx="862.4" cy="72.5" r="0.50" fill="#dff1ff" opacity="0.74"></circle>
    <circle cx="917.6" cy="656.6" r="1.54" fill="#dff1ff" opacity="0.85"></circle>
    <circle cx="759.6" cy="185.2" r="0.71" fill="#dff1ff" opacity="0.61"></circle>
    <circle cx="192.2" cy="991.7" r="2.99" fill="#dff1ff" opacity="0.56" filter="url(#starGlow)"></circle>
    <circle cx="978.7" cy="125.5" r="0.52" fill="#dff1ff" opacity="0.84"></circle>
    <circle cx="252.9" cy="5.6" r="1.97" fill="#dff1ff" opacity="0.41" filter="url(#starGlow)"></circle>
    <circle cx="797.1" cy="157.8" r="1.30" fill="#dff1ff" opacity="0.80"></circle>
    <circle cx="1376.6" cy="914.1" r="0.49" fill="#dff1ff" opacity="0.72"></circle>
    <circle cx="329.0" cy="79.7" r="0.93" fill="#dff1ff" opacity="0.65"></circle>
    <circle cx="1251.4" cy="409.9" r="0.57" fill="#dff1ff" opacity="0.27"></circle>
    <circle cx="1093.4" cy="68.9" r="1.17" fill="#ffe6a8" opacity="0.37"></circle>
    <circle cx="620.1" cy="809.0" r="0.80" fill="#dff1ff" opacity="0.60"></circle>
    <circle cx="445.1" cy="356.2" r="1.18" fill="#dff1ff" opacity="0.33"></circle>
    <circle cx="301.4" cy="838.1" r="0.57" fill="#dff1ff" opacity="0.35"></circle>
    <circle cx="846.4" cy="798.7" r="0.78" fill="#dff1ff" opacity="0.58"></circle>
    <circle cx="24.9" cy="656.5" r="1.07" fill="#dff1ff" opacity="0.22"></circle>
    <circle cx="40.1" cy="410.3" r="1.42" fill="#dff1ff" opacity="0.61"></circle>
    <circle cx="430.5" cy="366.9" r="0.96" fill="#dff1ff" opacity="0.54"></circle>
    <circle cx="585.6" cy="475.0" r="1.77" fill="#dff1ff" opacity="0.72"></circle>
    <circle cx="1389.9" cy="755.4" r="1.57" fill="#dff1ff" opacity="0.91"></circle>
    <circle cx="360.8" cy="427.2" r="1.44" fill="#dff1ff" opacity="0.44"></circle>
    <circle cx="851.5" cy="427.7" r="1.79" fill="#dff1ff" opacity="0.67"></circle>
    <circle cx="312.7" cy="102.1" r="1.29" fill="#dff1ff" opacity="0.23"></circle>
    <circle cx="927.3" cy="556.6" r="1.86" fill="#ffe6a8" opacity="0.87"></circle>
    <circle cx="880.3" cy="837.0" r="1.29" fill="#dff1ff" opacity="0.64"></circle>
    <circle cx="53.8" cy="230.6" r="1.87" fill="#dff1ff" opacity="0.46"></circle>
    <circle cx="118.9" cy="578.2" r="0.91" fill="#dff1ff" opacity="0.74"></circle>
    <circle cx="218.9" cy="940.2" r="1.98" fill="#dff1ff" opacity="0.77"></circle>
    <circle cx="954.3" cy="106.2" r="2.04" fill="#dff1ff" opacity="0.40"></circle>
    <circle cx="921.6" cy="848.7" r="1.09" fill="#dff1ff" opacity="0.94"></circle>
    <circle cx="1482.0" cy="614.1" r="0.73" fill="#dff1ff" opacity="0.81"></circle>
    <circle cx="236.2" cy="937.5" r="0.41" fill="#dff1ff" opacity="0.79"></circle>
    <circle cx="595.9" cy="336.7" r="1.10" fill="#dff1ff" opacity="0.49"></circle>
    <circle cx="1350.9" cy="956.2" r="1.85" fill="#dff1ff" opacity="0.26"></circle>
    <circle cx="851.8" cy="783.6" r="0.52" fill="#dff1ff" opacity="0.77"></circle>
    <circle cx="1079.7" cy="810.9" r="0.43" fill="#dff1ff" opacity="0.78"></circle>
    <circle cx="58.5" cy="26.6" r="0.78" fill="#dff1ff" opacity="0.40"></circle>
    <circle cx="1449.2" cy="860.0" r="3.08" fill="#dff1ff" opacity="0.70" filter="url(#starGlow)"></circle>
    <circle cx="14.6" cy="108.2" r="1.05" fill="#ffe6a8" opacity="0.46"></circle>
    <circle cx="258.7" cy="316.9" r="1.73" fill="#ffe6a8" opacity="0.70"></circle>
    <circle cx="300.0" cy="57.2" r="1.44" fill="#dff1ff" opacity="0.36"></circle>
    <circle cx="1208.0" cy="582.3" r="2.78" fill="#dff1ff" opacity="0.86" filter="url(#starGlow)"></circle>
    <circle cx="366.9" cy="258.9" r="1.91" fill="#dff1ff" opacity="0.92"></circle>
    <circle cx="665.0" cy="867.0" r="0.84" fill="#dff1ff" opacity="0.46"></circle>
    <circle cx="548.5" cy="369.1" r="0.59" fill="#dff1ff" opacity="0.54"></circle>
    <circle cx="287.5" cy="949.7" r="1.88" fill="#dff1ff" opacity="0.77"></circle>
    <circle cx="1439.0" cy="453.1" r="1.91" fill="#dff1ff" opacity="0.48"></circle>
    <circle cx="1414.8" cy="123.5" r="1.00" fill="#dff1ff" opacity="0.65"></circle>
    <circle cx="308.9" cy="488.4" r="0.53" fill="#dff1ff" opacity="0.93"></circle>
    <circle cx="950.7" cy="526.9" r="2.20" fill="#dff1ff" opacity="0.90" filter="url(#starGlow)"></circle>
    <circle cx="376.4" cy="878.0" r="0.63" fill="#dff1ff" opacity="0.81"></circle>
    <circle cx="951.1" cy="1013.2" r="1.59" fill="#dff1ff" opacity="0.56"></circle>
    <circle cx="128.5" cy="54.2" r="1.53" fill="#dff1ff" opacity="0.82"></circle>
    <circle cx="455.1" cy="197.7" r="2.48" fill="#dff1ff" opacity="0.29" filter="url(#starGlow)"></circle>
    <circle cx="499.7" cy="36.9" r="1.87" fill="#dff1ff" opacity="0.59"></circle>
    <circle cx="438.9" cy="688.8" r="2.01" fill="#dff1ff" opacity="0.66"></circle>
    <circle cx="1054.6" cy="101.7" r="1.81" fill="#dff1ff" opacity="0.85"></circle>
    <circle cx="237.7" cy="817.7" r="1.95" fill="#dff1ff" opacity="0.64"></circle>
    <circle cx="40.2" cy="546.5" r="1.22" fill="#dff1ff" opacity="0.88"></circle>
    <circle cx="959.1" cy="966.0" r="1.65" fill="#dff1ff" opacity="0.38"></circle>
    <circle cx="292.5" cy="495.4" r="1.75" fill="#dff1ff" opacity="0.87" filter="url(#starGlow)"></circle>
    <circle cx="332.4" cy="158.5" r="2.09" fill="#ffe6a8" opacity="0.88"></circle>
    <circle cx="874.6" cy="9.6" r="1.08" fill="#dff1ff" opacity="0.49"></circle>
    <circle cx="667.2" cy="891.1" r="0.40" fill="#dff1ff" opacity="0.62"></circle>
    <circle cx="1067.2" cy="897.4" r="1.85" fill="#dff1ff" opacity="0.29"></circle>
    <circle cx="1110.5" cy="814.1" r="1.63" fill="#dff1ff" opacity="0.53"></circle>
    <circle cx="1099.2" cy="337.7" r="1.70" fill="#dff1ff" opacity="0.27"></circle>
    <circle cx="917.3" cy="518.0" r="0.77" fill="#dff1ff" opacity="0.43"></circle>
    <circle cx="48.3" cy="90.6" r="1.23" fill="#dff1ff" opacity="0.41"></circle>
    <circle cx="993.4" cy="366.1" r="1.53" fill="#dff1ff" opacity="0.80"></circle>
    <circle cx="1408.4" cy="235.4" r="1.30" fill="#ffe6a8" opacity="0.92"></circle>
    <circle cx="16.7" cy="151.0" r="1.49" fill="#dff1ff" opacity="0.61"></circle>
    <circle cx="1213.1" cy="446.7" r="1.00" fill="#dff1ff" opacity="0.86"></circle>
    <circle cx="508.2" cy="875.1" r="1.61" fill="#dff1ff" opacity="0.40"></circle>
    <circle cx="1371.0" cy="845.3" r="0.52" fill="#ffe6a8" opacity="0.72"></circle>
    <circle cx="1330.4" cy="522.6" r="1.41" fill="#dff1ff" opacity="0.41"></circle>
    <circle cx="1263.2" cy="899.2" r="1.03" fill="#dff1ff" opacity="0.20"></circle>
    <circle cx="1109.3" cy="785.0" r="0.68" fill="#ffe6a8" opacity="0.36"></circle>
    <circle cx="223.4" cy="548.5" r="1.70" fill="#dff1ff" opacity="0.24"></circle>
    <circle cx="505.8" cy="477.1" r="1.38" fill="#dff1ff" opacity="0.22"></circle>
    <circle cx="1362.4" cy="1001.4" r="1.21" fill="#dff1ff" opacity="0.27"></circle>
    <circle cx="698.6" cy="512.1" r="2.00" fill="#dff1ff" opacity="0.34"></circle>
    <circle cx="588.1" cy="636.2" r="1.76" fill="#dff1ff" opacity="0.56"></circle>
    <circle cx="436.4" cy="670.1" r="0.71" fill="#dff1ff" opacity="0.21"></circle>
    <circle cx="23.1" cy="787.2" r="1.66" fill="#dff1ff" opacity="0.74"></circle>
    <circle cx="1008.7" cy="943.5" r="1.96" fill="#dff1ff" opacity="0.86" filter="url(#starGlow)"></circle>
    <circle cx="1372.8" cy="238.9" r="1.86" fill="#ffe6a8" opacity="0.33"></circle>
    <circle cx="1222.5" cy="500.7" r="0.85" fill="#dff1ff" opacity="0.80"></circle>
    <circle cx="1478.0" cy="18.0" r="1.12" fill="#dff1ff" opacity="0.39"></circle>
    <circle cx="1012.0" cy="902.4" r="1.22" fill="#ffe6a8" opacity="0.31"></circle>
    <circle cx="359.3" cy="675.8" r="1.80" fill="#dff1ff" opacity="0.88"></circle>
    <circle cx="635.6" cy="281.5" r="2.08" fill="#dff1ff" opacity="0.36"></circle>
    <circle cx="23.6" cy="616.1" r="1.26" fill="#dff1ff" opacity="0.76"></circle>
    <circle cx="1052.4" cy="463.3" r="1.29" fill="#dff1ff" opacity="0.74"></circle>
    <circle cx="1360.9" cy="929.5" r="0.45" fill="#dff1ff" opacity="0.42"></circle>
    <circle cx="1061.9" cy="912.0" r="1.21" fill="#dff1ff" opacity="0.41"></circle>
    <circle cx="1198.0" cy="74.0" r="0.46" fill="#ffe6a8" opacity="0.49"></circle>
    <circle cx="304.7" cy="407.1" r="0.49" fill="#dff1ff" opacity="0.77"></circle>
    <circle cx="249.9" cy="408.1" r="1.57" fill="#dff1ff" opacity="0.43"></circle>
    <circle cx="231.3" cy="634.5" r="2.39" fill="#dff1ff" opacity="0.85" filter="url(#starGlow)"></circle>
    <circle cx="111.0" cy="148.7" r="1.26" fill="#ffe6a8" opacity="0.44"></circle>
    <circle cx="1147.6" cy="543.7" r="1.58" fill="#dff1ff" opacity="0.90"></circle>
    <circle cx="165.0" cy="900.6" r="0.96" fill="#dff1ff" opacity="0.93"></circle>
    <circle cx="727.6" cy="569.9" r="1.01" fill="#dff1ff" opacity="0.50"></circle>
    <circle cx="833.7" cy="13.1" r="2.00" fill="#dff1ff" opacity="0.34"></circle>
    <circle cx="1396.4" cy="754.5" r="1.21" fill="#dff1ff" opacity="0.45"></circle>
    <circle cx="626.4" cy="951.6" r="0.60" fill="#dff1ff" opacity="0.88"></circle>
    <circle cx="1390.8" cy="318.6" r="0.92" fill="#dff1ff" opacity="0.75"></circle>
    <circle cx="503.1" cy="169.6" r="0.62" fill="#dff1ff" opacity="0.46"></circle>
    <circle cx="165.6" cy="494.9" r="0.82" fill="#ffe6a8" opacity="0.74"></circle>
    <circle cx="685.1" cy="34.8" r="1.73" fill="#dff1ff" opacity="0.37"></circle>
    <circle cx="783.3" cy="888.7" r="1.09" fill="#dff1ff" opacity="0.49"></circle>
    <circle cx="232.2" cy="14.1" r="1.78" fill="#dff1ff" opacity="0.27"></circle>
    <circle cx="947.8" cy="813.4" r="1.60" fill="#dff1ff" opacity="0.89"></circle>
    <circle cx="696.6" cy="51.7" r="1.97" fill="#dff1ff" opacity="0.33"></circle>
    <circle cx="158.6" cy="893.8" r="1.63" fill="#dff1ff" opacity="0.83"></circle>
    <circle cx="111.5" cy="467.4" r="0.57" fill="#dff1ff" opacity="0.84"></circle>
    <circle cx="155.0" cy="767.2" r="0.87" fill="#dff1ff" opacity="0.57"></circle>
    <circle cx="17.5" cy="892.5" r="0.93" fill="#dff1ff" opacity="0.81"></circle>
    <circle cx="1312.0" cy="418.3" r="2.05" fill="#dff1ff" opacity="0.48"></circle>
    <circle cx="1172.2" cy="727.6" r="0.66" fill="#dff1ff" opacity="0.63"></circle>
    <circle cx="1133.4" cy="456.9" r="3.16" fill="#dff1ff" opacity="0.79" filter="url(#starGlow)"></circle>
  </g>

  
  <g stroke="#5ad8f0" stroke-width="2.6" stroke-linecap="round" fill="none" opacity="0.75" filter="url(#edgeGlow)">
    <line x1="276.0" y1="356.4" x2="550.0" y2="340.8"></line>
    <line x1="264.8" y1="367.8" x2="342.5" y2="391.9"></line>
    <line x1="608.1" y1="342.0" x2="1134.2" y2="396.0"></line>
    <line x1="420.4" y1="420.2" x2="684.5" y2="533.5"></line>
    <line x1="904.6" y1="347.8" x2="693.3" y2="417.2"></line>
    <line x1="898.8" y1="344.1" x2="444.8" y2="398.1"></line>
    <line x1="1264.2" y1="350.1" x2="953.9" y2="341.7"></line>
    <line x1="1278.5" y1="361.4" x2="1226.7" y2="386.6"></line>
    <line x1="718.2" y1="428.2" x2="1131.1" y2="405.7"></line>
    <line x1="666.7" y1="451.6" x2="738.2" y2="526.6"></line>
    <line x1="1159.9" y1="417.2" x2="888.5" y2="533.5"></line>
  </g>

  
  <g>
    <circle cx="248" cy="360" r="1.6" fill="#dff1ff" opacity="0.9" filter="url(#starGlow)"></circle>
    <circle cx="372" cy="407" r="1.9" fill="#dff1ff" opacity="0.85" filter="url(#starGlow)"></circle>
    <circle cx="402" cy="402" r="1.2" fill="#ffe6a8" opacity="0.8"></circle>
    <circle cx="1204" cy="404" r="1.7" fill="#dff1ff" opacity="0.85" filter="url(#starGlow)"></circle>
    <circle cx="1296" cy="352" r="1.3" fill="#dff1ff" opacity="0.8"></circle>
    <circle cx="662" cy="433" r="1.5" fill="#dff1ff" opacity="0.85" filter="url(#starGlow)"></circle>
  </g>
  <g fill="#173a66" fill-opacity="0.6" stroke="#a8ddff" stroke-opacity="0.85" stroke-width="2.2">
    <ellipse cx="235.6" cy="358.7" rx="37.1" ry="10.8"></ellipse>
    <ellipse cx="579.5" cy="339.1" rx="25.9" ry="8.1"></ellipse>
    <ellipse cx="385.3" cy="405.2" rx="61.2" ry="15.7"></ellipse>
    <ellipse cx="925.7" cy="340.9" rx="24.3" ry="8.1"></ellipse>
    <ellipse cx="1299.6" cy="351.1" rx="31.5" ry="10.3"></ellipse>
    <ellipse cx="648" cy="432" rx="67.7" ry="17.2"></ellipse>
    <ellipse cx="1194.8" cy="402.2" rx="61.0" ry="15.6"></ellipse>
  </g>

  
  <ellipse cx="786.5" cy="577.2" rx="230" ry="72" fill="#4ff0ff" opacity="0.30" filter="url(#activeGlow)"></ellipse>
  <ellipse cx="786.5" cy="577.2" rx="191.6" ry="49.1" fill="url(#nodeActive)" fill-opacity="0.42" stroke="#aacdd8" stroke-width="2.6"></ellipse>
  <ellipse cx="786.5" cy="573" rx="150" ry="34" fill="#ffffff" opacity="0.06"></ellipse>

  
  <g transform="translate(622.5, 312) scale(0.41)">
    <g fill="none" stroke="#141a2e" stroke-width="12" stroke-linejoin="round" stroke-linecap="round">
      <path d="M368 320 C 300 272 262 196 288 150 C 320 148 366 224 392 298 Z" fill="#aeb8e0"></path>
      <path d="M356 300 C 318 260 302 214 312 184 C 340 214 352 258 366 292 Z" fill="#6f7ec0" stroke="none"></path>
      <path d="M432 320 C 500 264 542 182 514 140 C 480 142 434 226 408 298 Z" fill="#aeb8e0"></path>
      <path d="M446 300 C 486 256 502 208 490 178 C 462 210 450 258 436 292 Z" fill="#6f7ec0" stroke="none"></path>
      <ellipse cx="400" cy="322" rx="62" ry="58" fill="#98a4d8"></ellipse>
      <path d="M362 356 C 378 372 422 372 438 356 C 434 372 420 382 400 382 C 380 382 366 372 362 356 Z" fill="#6f7ec0" stroke="none"></path>
      <ellipse cx="280" cy="632" rx="90" ry="38" fill="#98a4d8"></ellipse>
      <ellipse cx="520" cy="632" rx="90" ry="38" fill="#98a4d8"></ellipse>
      <ellipse cx="400" cy="490" rx="178" ry="168" fill="#8a97d0"></ellipse>
      <g clip-path="url(#bodyclip)" stroke="none">
        <ellipse cx="355" cy="420" rx="120" ry="120" fill="#cdd5f2"></ellipse>
        <path d="M250 500 C 300 560 340 600 400 610 C 460 600 500 560 550 500 C 560 620 500 700 400 710 C 300 700 240 620 250 500 Z" fill="#6f7ec0"></path>
        <ellipse cx="400" cy="600" rx="110" ry="90" fill="#6f7ec0"></ellipse>
        <path d="M300 560 C 330 600 360 618 400 620 C 440 618 470 600 500 560" fill="none" stroke="#454f85" stroke-width="5" stroke-linecap="round"></path>
      </g>
      <path transform="translate(-17,0)" d="M400 520 C 414 508 442 512 448 528 C 470 522 492 538 488 560 C 508 562 518 586 504 602 C 520 614 514 642 496 646 C 500 666 476 684 458 674 C 452 694 422 694 414 678 C 400 690 374 686 372 668 C 352 674 334 654 344 638 C 326 632 326 606 344 598 C 330 584 342 560 362 562 C 358 542 380 528 398 538 C 398 530 398 524 400 520 Z" fill="#f2f4ff"></path>
      <path transform="translate(-17,0)" d="M400 640 C 430 646 452 636 470 616 C 468 646 442 664 414 660 C 390 664 366 650 366 626 C 380 640 392 640 400 640 Z" fill="#d3d9f0" stroke="none"></path>
    </g>
  </g>

  <text x="56" y="150" font-family="&#39;Archivo&#39;, sans-serif" font-weight="800" font-size="92" letter-spacing="0.9" fill="#f2f4ff" filter="url(#titleGlow)">EdgeHop</text>
  <text x="57" y="212" font-family="&#39;Space Grotesk&#39;, sans-serif" font-weight="500" font-size="24" letter-spacing="5.3" fill="#dff1ff" fill-opacity="0.72">STOP GREPPING. START KNOWING.</text>
</svg>